<svg width="110" height="782" viewBox="0 0 110 782" fill="none" xmlns="http://www.w3.org/2000/svg">
<g filter="url(#filter0_d_29_24)">
<path d="M2 0.0790572L100 43.3391L100 70.6391L2 114.039L2 85.1991L86.42 51.3191L86.42 62.2391L2 28.3591L2 0.0790572ZM21.04 23.7391L41.48 30.8791L41.48 78.7591L21.04 85.8991L21.04 23.7391ZM1.99999 121.898L100 121.898L100 172.018C100 184.898 97.62 194.511 92.86 200.858C88.1933 207.204 82.0333 210.378 74.38 210.378C69.34 210.378 64.9067 209.024 61.08 206.318C57.3467 203.704 54.36 199.971 52.12 195.118C49.9733 190.358 48.9 184.664 48.9 178.038L55.62 180.838C55.62 187.744 54.5467 193.764 52.4 198.898C50.3467 204.031 47.3133 207.998 43.3 210.798C39.38 213.691 34.5733 215.138 28.88 215.138C20.3867 215.138 13.76 211.684 8.99999 204.778C4.33332 197.964 1.99999 187.978 1.99999 174.818L1.99999 121.898ZM22.02 149.338L22.02 172.578C22.02 177.338 22.8133 180.931 24.4 183.358C26.08 185.878 28.6 187.138 31.96 187.138C35.32 187.138 37.7933 185.878 39.38 183.358C41.06 180.931 41.9 177.338 41.9 172.578L41.9 147.378L61.08 147.378L61.08 168.378C61.08 173.044 61.8733 176.544 63.46 178.878C65.0467 181.211 67.4267 182.378 70.6 182.378C73.7733 182.378 76.1067 181.211 77.6 178.878C79.1867 176.544 79.98 173.044 79.98 168.378L79.98 149.338L22.02 149.338ZM0.0399878 278.915C0.0399882 271.075 1.29999 263.842 3.81999 257.215C6.33999 250.589 9.88666 244.802 14.46 239.855C19.1267 235.002 24.54 231.222 30.7 228.515C36.86 225.809 43.6267 224.455 51 224.455C58.3733 224.455 65.14 225.809 71.3 228.515C77.46 231.222 82.8267 235.002 87.4 239.855C92.0667 244.802 95.66 250.589 98.18 257.215C100.7 263.842 101.96 271.075 101.96 278.915C101.96 286.849 100.7 294.082 98.18 300.615C95.66 307.242 92.0667 312.982 87.4 317.835C82.8267 322.689 77.46 326.469 71.3 329.175C65.14 331.975 58.3733 333.375 51 333.375C43.6267 333.375 36.8133 331.975 30.56 329.175C24.4 326.469 19.0333 322.689 14.46 317.835C9.88665 312.982 6.33999 307.242 3.81999 300.615C1.29999 294.082 0.0399875 286.849 0.0399878 278.915ZM23 278.915C23 282.649 23.6533 286.102 24.96 289.275C26.2667 292.542 28.1333 295.342 30.56 297.675C33.08 300.102 36.0667 301.969 39.52 303.275C42.9733 304.675 46.8 305.375 51 305.375C55.2933 305.375 59.12 304.675 62.48 303.275C65.9333 301.969 68.8733 300.102 71.3 297.675C73.82 295.342 75.7333 292.542 77.04 289.275C78.3467 286.102 79 282.649 79 278.915C79 275.182 78.3467 271.682 77.04 268.415C75.7333 265.242 73.82 262.442 71.3 260.015C68.8733 257.682 65.9333 255.815 62.48 254.415C59.12 253.109 55.2933 252.455 51 252.455C46.8 252.455 42.9733 253.109 39.52 254.415C36.0667 255.815 33.08 257.682 30.56 260.015C28.1333 262.442 26.2667 265.242 24.96 268.415C23.6533 271.682 23 275.182 23 278.915ZM0.0399828 393.114C0.0399835 378.647 4.00665 367.354 11.94 359.234C19.8733 351.114 31.12 347.054 45.68 347.054L100 347.054L100 374.774L46.52 374.774C38.12 374.774 32.1 376.407 28.46 379.674C24.82 383.034 23 387.607 23 393.394C23 399.18 24.82 403.707 28.46 406.974C32.1 410.24 38.12 411.874 46.52 411.874L100 411.874L100 439.174L45.68 439.174C31.12 439.174 19.8733 435.114 11.94 426.994C4.00665 418.874 0.0399822 407.58 0.0399828 393.114ZM1.99998 477.308L78.02 477.308L78.02 447.208L100 447.208L100 534.988L78.02 534.988L78.02 505.028L1.99998 505.028L1.99998 477.308ZM0.0399724 631.278C0.0399731 616.811 4.00664 605.518 11.94 597.398C19.8733 589.278 31.12 585.218 45.68 585.218L100 585.218L100 612.938L46.52 612.938C38.12 612.938 32.1 614.571 28.46 617.838C24.82 621.198 23 625.771 23 631.558C23 637.344 24.82 641.871 28.46 645.138C32.1 648.404 38.12 650.038 46.52 650.038L100 650.038L100 677.338L45.68 677.338C31.12 677.338 19.8733 673.278 11.94 665.158C4.00664 657.038 0.0399718 645.744 0.0399724 631.278ZM0.0399681 730.556C0.0399684 722.53 1.01997 714.783 2.97997 707.316C5.0333 699.943 7.64664 693.923 10.82 689.256L31.26 698.356C28.46 702.743 26.1266 707.783 24.26 713.476C22.4866 719.263 21.6 725.003 21.6 730.696C21.6 734.523 21.9266 737.603 22.58 739.936C23.3266 742.27 24.26 743.95 25.38 744.976C26.5933 746.096 27.9933 746.656 29.58 746.656C31.82 746.656 33.5933 745.63 34.9 743.576C36.2066 741.523 37.28 738.863 38.12 735.596C38.96 732.33 39.8 728.69 40.64 724.676C41.48 720.756 42.5533 716.79 43.86 712.776C45.1666 708.856 46.8466 705.263 48.9 701.996C51.0466 698.73 53.8 696.07 57.16 694.016C60.6133 691.963 64.9533 690.936 70.18 690.936C76.06 690.936 81.38 692.523 86.14 695.696C90.9 698.963 94.7266 703.816 97.62 710.256C100.513 716.696 101.96 724.723 101.96 734.336C101.96 740.776 101.213 747.076 99.72 753.236C98.32 759.49 96.22 765.043 93.42 769.896L72.84 761.356C75.36 756.69 77.2266 752.07 78.44 747.496C79.7466 742.923 80.4 738.49 80.4 734.196C80.4 730.37 79.98 727.29 79.14 724.956C78.3933 722.623 77.3666 720.943 76.06 719.916C74.7533 718.89 73.26 718.376 71.58 718.376C69.4333 718.376 67.7066 719.356 66.4 721.316C65.1866 723.37 64.16 726.03 63.32 729.296C62.5733 732.656 61.78 736.296 60.94 740.216C60.1 744.23 59.0266 748.196 57.72 752.116C56.5066 756.13 54.8266 759.77 52.68 763.036C50.6266 766.303 47.8733 768.916 44.42 770.876C41.06 772.93 36.8133 773.956 31.68 773.956C25.9866 773.956 20.7133 772.323 15.86 769.056C11.1 765.883 7.2733 761.076 4.37997 754.636C1.48663 748.29 0.0399677 740.263 0.0399681 730.556Z" fill="url(#paint0_linear_29_24)"/>
</g>
<defs>
<filter id="filter0_d_29_24" x="0.039917" y="0.0791016" width="109.92" height="781.877" filterUnits="userSpaceOnUse" color-interpolation-filters="sRGB">
<feFlood flood-opacity="0" result="BackgroundImageFix"/>
<feColorMatrix in="SourceAlpha" type="matrix" values="0 0 0 0 0 0 0 0 0 0 0 0 0 0 0 0 0 0 127 0" result="hardAlpha"/>
<feOffset dx="4" dy="4"/>
<feGaussianBlur stdDeviation="2"/>
<feComposite in2="hardAlpha" operator="out"/>
<feColorMatrix type="matrix" values="0 0 0 0 0 0 0 0 0 0 0 0 0 0 0 0 0 0 0.25 0"/>
<feBlend mode="normal" in2="BackgroundImageFix" result="effect1_dropShadow_29_24"/>
<feBlend mode="normal" in="SourceGraphic" in2="effect1_dropShadow_29_24" result="shape"/>
</filter>
<linearGradient id="paint0_linear_29_24" x1="78" y1="440.593" x2="-128" y2="440.593" gradientUnits="userSpaceOnUse">
<stop stop-color="white"/>
<stop offset="1"/>
</linearGradient>
</defs>
</svg>
