<svg width="110" height="782" viewBox="0 0 110 782" fill="none" xmlns="http://www.w3.org/2000/svg">
<g filter="url(#filter0_d_29_24)">
<path d="M2 0.284135L100 43.5441L100 70.8441L2 114.244L2 85.4041L86.42 51.5241L86.42 62.4441L2 28.5641L2 0.284135ZM21.04 23.9441L41.48 31.0841L41.48 78.9641L21.04 86.1041L21.04 23.9441ZM1.99999 122.103L100 122.103L100 172.223C100 185.103 97.62 194.716 92.86 201.063C88.1933 207.409 82.0333 210.583 74.38 210.583C69.34 210.583 64.9067 209.229 61.08 206.523C57.3467 203.909 54.36 200.176 52.12 195.323C49.9733 190.563 48.9 184.869 48.9 178.243L55.62 181.043C55.62 187.949 54.5467 193.969 52.4 199.103C50.3467 204.236 47.3133 208.203 43.3 211.003C39.38 213.896 34.5733 215.343 28.88 215.343C20.3867 215.343 13.76 211.889 8.99999 204.983C4.33332 198.169 1.99999 188.183 1.99999 175.023L1.99999 122.103ZM22.02 149.543L22.02 172.783C22.02 177.543 22.8133 181.136 24.4 183.563C26.08 186.083 28.6 187.343 31.96 187.343C35.32 187.343 37.7933 186.083 39.38 183.563C41.06 181.136 41.9 177.543 41.9 172.783L41.9 147.583L61.08 147.583L61.08 168.583C61.08 173.249 61.8733 176.749 63.46 179.083C65.0467 181.416 67.4267 182.583 70.6 182.583C73.7733 182.583 76.1067 181.416 77.6 179.083C79.1867 176.749 79.98 173.249 79.98 168.583L79.98 149.543L22.02 149.543ZM0.0399878 279.12C0.0399882 271.28 1.29999 264.047 3.81999 257.42C6.33999 250.794 9.88666 245.007 14.46 240.06C19.1267 235.207 24.54 231.427 30.7 228.72C36.86 226.014 43.6267 224.66 51 224.66C58.3733 224.66 65.14 226.014 71.3 228.72C77.46 231.427 82.8267 235.207 87.4 240.06C92.0667 245.007 95.66 250.794 98.18 257.42C100.7 264.047 101.96 271.28 101.96 279.12C101.96 287.054 100.7 294.287 98.18 300.82C95.66 307.447 92.0667 313.187 87.4 318.04C82.8267 322.894 77.46 326.674 71.3 329.38C65.14 332.18 58.3733 333.58 51 333.58C43.6267 333.58 36.8133 332.18 30.56 329.38C24.4 326.674 19.0333 322.894 14.46 318.04C9.88665 313.187 6.33999 307.447 3.81999 300.82C1.29999 294.287 0.0399875 287.054 0.0399878 279.12ZM23 279.12C23 282.854 23.6533 286.307 24.96 289.48C26.2667 292.747 28.1333 295.547 30.56 297.88C33.08 300.307 36.0667 302.174 39.52 303.48C42.9733 304.88 46.8 305.58 51 305.58C55.2933 305.58 59.12 304.88 62.48 303.48C65.9333 302.174 68.8733 300.307 71.3 297.88C73.82 295.547 75.7333 292.747 77.04 289.48C78.3467 286.307 79 282.854 79 279.12C79 275.387 78.3467 271.887 77.04 268.62C75.7333 265.447 73.82 262.647 71.3 260.22C68.8733 257.887 65.9333 256.02 62.48 254.62C59.12 253.314 55.2933 252.66 51 252.66C46.8 252.66 42.9733 253.314 39.52 254.62C36.0667 256.02 33.08 257.887 30.56 260.22C28.1333 262.647 26.2667 265.447 24.96 268.62C23.6533 271.887 23 275.387 23 279.12ZM0.0399828 393.319C0.0399835 378.852 4.00665 367.559 11.94 359.439C19.8733 351.319 31.12 347.259 45.68 347.259L100 347.259L100 374.979L46.52 374.979C38.12 374.979 32.1 376.612 28.46 379.879C24.82 383.239 23 387.812 23 393.599C23 399.385 24.82 403.912 28.46 407.179C32.1 410.445 38.12 412.079 46.52 412.079L100 412.079L100 439.379L45.68 439.379C31.12 439.379 19.8733 435.319 11.94 427.199C4.00665 419.079 0.0399822 407.785 0.0399828 393.319ZM1.99998 477.103L78.02 477.103L78.02 447.003L100 447.003L100 534.783L78.02 534.783L78.02 504.823L1.99998 504.823L1.99998 477.103ZM0.0399724 631.073C0.0399731 616.606 4.00664 605.313 11.94 597.193C19.8733 589.073 31.12 585.013 45.68 585.013L100 585.013L100 612.733L46.52 612.733C38.12 612.733 32.1 614.366 28.46 617.633C24.82 620.993 23 625.566 23 631.353C23 637.139 24.82 641.666 28.46 644.933C32.1 648.199 38.12 649.833 46.52 649.833L100 649.833L100 677.133L45.68 677.133C31.12 677.133 19.8733 673.073 11.94 664.953C4.00664 656.833 0.0399718 645.539 0.0399724 631.073ZM0.0399681 730.351C0.0399685 722.325 1.01997 714.578 2.97997 707.111C5.0333 699.738 7.64664 693.718 10.82 689.051L31.26 698.151C28.46 702.538 26.1266 707.578 24.26 713.271C22.4866 719.058 21.6 724.798 21.6 730.491C21.6 734.318 21.9266 737.398 22.58 739.731C23.3266 742.065 24.26 743.745 25.38 744.771C26.5933 745.891 27.9933 746.451 29.58 746.451C31.82 746.451 33.5933 745.425 34.9 743.371C36.2066 741.318 37.28 738.658 38.12 735.391C38.96 732.125 39.8 728.485 40.64 724.471C41.48 720.551 42.5533 716.585 43.86 712.571C45.1666 708.651 46.8466 705.058 48.9 701.791C51.0466 698.525 53.8 695.865 57.16 693.811C60.6133 691.758 64.9533 690.731 70.18 690.731C76.06 690.731 81.38 692.318 86.14 695.491C90.9 698.758 94.7266 703.611 97.62 710.051C100.513 716.491 101.96 724.518 101.96 734.131C101.96 740.571 101.213 746.871 99.72 753.031C98.32 759.285 96.22 764.838 93.42 769.691L72.84 761.151C75.36 756.485 77.2266 751.865 78.44 747.291C79.7466 742.718 80.4 738.285 80.4 733.991C80.4 730.165 79.98 727.085 79.14 724.751C78.3933 722.418 77.3666 720.738 76.06 719.711C74.7533 718.685 73.26 718.171 71.58 718.171C69.4333 718.171 67.7066 719.151 66.4 721.111C65.1866 723.165 64.16 725.825 63.32 729.091C62.5733 732.451 61.78 736.091 60.94 740.011C60.1 744.025 59.0266 747.991 57.72 751.911C56.5066 755.925 54.8266 759.565 52.68 762.831C50.6266 766.098 47.8733 768.711 44.42 770.671C41.06 772.725 36.8133 773.751 31.68 773.751C25.9866 773.751 20.7133 772.118 15.86 768.851C11.1 765.678 7.2733 760.871 4.37997 754.431C1.48663 748.085 0.0399677 740.058 0.0399681 730.351Z" fill="white"/>
</g>
<defs>
<filter id="filter0_d_29_24" x="0.039917" y="0.28418" width="109.92" height="781.467" filterUnits="userSpaceOnUse" color-interpolation-filters="sRGB">
<feFlood flood-opacity="0" result="BackgroundImageFix"/>
<feColorMatrix in="SourceAlpha" type="matrix" values="0 0 0 0 0 0 0 0 0 0 0 0 0 0 0 0 0 0 127 0" result="hardAlpha"/>
<feOffset dx="4" dy="4"/>
<feGaussianBlur stdDeviation="2"/>
<feComposite in2="hardAlpha" operator="out"/>
<feColorMatrix type="matrix" values="0 0 0 0 0 0 0 0 0 0 0 0 0 0 0 0 0 0 0.25 0"/>
<feBlend mode="normal" in2="BackgroundImageFix" result="effect1_dropShadow_29_24"/>
<feBlend mode="normal" in="SourceGraphic" in2="effect1_dropShadow_29_24" result="shape"/>
</filter>
</defs>
</svg>
